<svg xmlns="http://www.w3.org/2000/svg" id="Layer_1" data-name="Layer 1" viewBox="0 0 190.73 120"><defs><style>.cls-1{fill:#97005e;}.cls-2{fill:#455560;}</style></defs><polygon class="cls-1" points="145.43 92.68 146.7 119.63 165.26 119.63 163.49 83.53 151.03 100.3 145.43 92.68"></polygon><rect class="cls-2" x="193.47" y="104.47" width="2.29" height="0.75" transform="translate(85.01 299.02) rotate(-89.85)"></rect><path class="cls-2" d="M195,110.85h-.74c0-1.35,0-3,0-4.85H195C195,107.83,195,109.5,195,110.85Z" transform="translate(-4.26 -0.17)"></path><path class="cls-2" d="M194.2,93.83c0-.81,0-1.61,0-2.38l.75,0c0,.78,0,1.58,0,2.39Z" transform="translate(-4.26 -0.17)"></path><polygon class="cls-2" points="189.98 98.64 189.97 96.13 190.71 96.13 190.72 98.63 189.98 98.64"></polygon><rect class="cls-2" x="189.98" y="101.12" width="0.75" height="2.41"></rect><polygon class="cls-2" points="189.98 101.12 189.98 98.64 190.72 98.63 190.73 101.11 189.98 101.12"></polygon><path class="cls-2" d="M194.94,118.56h-.75s0-5.56,0-7.72H195C195,113,194.94,118.56,194.94,118.56Z" transform="translate(-4.26 -0.17)"></path><path class="cls-2" d="M155.3,68c-3.93,0-8.62-4.18-11.07-6.68a29.49,29.49,0,0,1-3.61-4.29A25.14,25.14,0,0,1,138.09,51c-3.93-1.56-5.34-7.4-5.3-10.74,0-2,.52-3.16,1.47-3.49a2.83,2.83,0,0,1,1-.16l1,.06.15.79c.28,1.44.62,2.84.91,3.94,3.47-5,21.06-13.82,28.79-17.52l.52-.24.49.31c3.88,2.48,6.11,7.75,6.66,15.68.17-.68.34-1.42.49-2.18l.15-.77.78-.06a3,3,0,0,1,1.19.15c.94.33,1.44,1.5,1.46,3.49,0,3.34-1.37,9.19-5.3,10.74A24.81,24.81,0,0,1,170,57.05a29.44,29.44,0,0,1-3.61,4.28C163.9,63.83,159.18,68,155.3,68ZM135.19,37.31a2.26,2.26,0,0,0-.69.13c-.61.21-.94,1.17-1,2.78,0,3.17,1.26,8.71,4.91,10.08l.17.06.14.22a24.59,24.59,0,0,0,2.5,6.08,28.41,28.41,0,0,0,3.5,4.16c2.37,2.41,6.88,6.45,10.54,6.45s8.15-4,10.53-6.46a28.36,28.36,0,0,0,3.5-4.15,24.42,24.42,0,0,0,2.5-6.08l.06-.2.18-.06c3.72-1.39,5-6.92,5-10.1,0-1.61-.35-2.57-1-2.78a2.19,2.19,0,0,0-.88-.12l-.22,0,0,.22c-.36,1.79-.81,3.46-1.13,4.55l-.66,2.31L173.09,42c-.22-9-2.39-14.9-6.42-17.47l-.14-.09-.14.07c-6.34,3-27.14,13.26-28.88,18l-.4,1.07-.31-1.1c-.34-1.19-.81-3-1.17-4.89l0-.22Z" transform="translate(-4.26 -0.17)"></path><path class="cls-2" d="M129.15,76.35a.37.37,0,0,1-.09-.74c1.36-.31,2.77-.51,4.14-.71a39.62,39.62,0,0,0,5.6-1.1,7.26,7.26,0,0,0,4.39-4.27.37.37,0,0,1,.68.3A8,8,0,0,1,139,74.51a38.17,38.17,0,0,1-5.71,1.12c-1.36.2-2.76.41-4.08.71Z" transform="translate(-4.26 -0.17)"></path><path class="cls-2" d="M194.93,120.17H116a.38.38,0,0,1,0-.75h78.16c0-4.44.06-12.58.05-16.91,0-5.49,0-10.07-.18-14.8v-.18a10.18,10.18,0,0,0-1-4.94,9.28,9.28,0,0,0-3.51-3.33c-3.76-2.22-8.47-3.06-12.26-3.73-.59-.1-1.21-.18-1.84-.26A15.17,15.17,0,0,1,170.34,74a7.69,7.69,0,0,1-2.83-2.68l.62,12.49-.08.11L155.29,101.1l-5.9-8a.37.37,0,0,1,.6-.44l5.31,7.22,12.08-16.26-.79-15.92.81,1.87a7.7,7.7,0,0,0,3.29,3.81,14.51,14.51,0,0,0,4.87,1.19c.64.08,1.27.16,1.87.27,3.85.68,8.63,1.52,12.51,3.82a10.12,10.12,0,0,1,3.78,3.6,11,11,0,0,1,1.08,5.28v.18c.17,4.74.18,9.33.19,14.83,0,4.46,0,12.94-.05,17.29Z" transform="translate(-4.26 -0.17)"></path><path class="cls-2" d="M169.52,120.17a.37.37,0,0,1-.37-.36L166.69,69.7a.37.37,0,0,1,.35-.39.35.35,0,0,1,.39.35l2.46,50.11a.39.39,0,0,1-.35.4Z" transform="translate(-4.26 -0.17)"></path><path class="cls-2" d="M143,81.68h0a.37.37,0,0,1-.36-.39l.65-13.72a.38.38,0,0,1,.39-.36.38.38,0,0,1,.35.39l-.64,13.73A.37.37,0,0,1,143,81.68Z" transform="translate(-4.26 -0.17)"></path><path class="cls-2" d="M155.3,10.48h0c-25.78,0-29.33,46.13-25.74,65.4,3.06-.67,6.37-.82,9.36-1.73a7.6,7.6,0,0,0,4.62-4.47l1.4-8.16-.44-.44a28.52,28.52,0,0,1-3.55-4.23,25.15,25.15,0,0,1-2.54-6.17l-.08,0c-3.83-1.44-5.19-7.16-5.15-10.43,0-1.81.43-2.86,1.21-3.14a2.63,2.63,0,0,1,.83-.14l.69,0,.1.51c.37,2,.86,3.8,1.16,4.86,1.79-4.82,22.45-15,29.07-18.17l.33-.16.31.2c4.15,2.65,6.36,8.63,6.6,17.78.31-1.08.76-2.75,1.11-4.52l.1-.49.5,0a2.57,2.57,0,0,1,1,.14c.79.27,1.2,1.32,1.22,3.13,0,3.27-1.33,9-5.15,10.43l-.09,0a24.77,24.77,0,0,1-2.54,6.17,28.47,28.47,0,0,1-3.55,4.22l-.44.44,1.4,8.17a7.62,7.62,0,0,0,4.34,4.37,27.55,27.55,0,0,0,4.52.87c1.61.27,3.22.56,4.82.9C183.89,56,181.17,10.48,155.3,10.48ZM137.23,50.75A1.28,1.28,0,1,1,136,52,1.27,1.27,0,0,1,137.23,50.75Zm36.18,2.55A1.28,1.28,0,1,1,174.69,52,1.27,1.27,0,0,1,173.41,53.3Z" transform="translate(-4.26 -0.17)"></path><path class="cls-2" d="M99,69.43a9.6,9.6,0,0,1-5.34-1.64l-.4-.35c-3.62-3.16-8.53-8.08-10-9.52a7.19,7.19,0,0,1-1-1,10.28,10.28,0,0,1-1.73-3.31,13.07,13.07,0,0,1-.38-2l0-.18a5.5,5.5,0,0,0-1.06-3.11,13.54,13.54,0,0,0-1.16-1A7.4,7.4,0,0,1,75.6,44.8a18.73,18.73,0,0,1-2-9.89v-1c0-1.27-.09-2.73,1.51-3.84l.38-.24c-.26-1.42-.42-2.88-.58-4.29l-.07-.67c-.17-1.58-1.45-15.45,6.83-17.37C85.35,2.47,94.41.17,101.34.17h.13a25,25,0,0,1,19.47,9.24c3.74,4.62,3.47,9.73,2.77,15.46a36.89,36.89,0,0,1-.45,4.88c-.11.42-.23.83-.37,1.23a6.37,6.37,0,0,1,1,1.29,8.46,8.46,0,0,1,.9,2.57h0A16.13,16.13,0,0,1,123,44.77a7.49,7.49,0,0,1-2.38,2.56,13,13,0,0,0-1.15,1c-.74.72-.92,2-1.09,3.3a13.42,13.42,0,0,1-.38,2,9.84,9.84,0,0,1-1.73,3.28,7,7,0,0,1-1,1.06l-.6.63c-2.18,2.27-6.25,6.49-9.27,9.21a9.62,9.62,0,0,1-5.86,1.59ZM101.47.91h-.13c-6.8,0-15.67,2.24-19.1,7.16l-.09.12-.14,0c-6.33,1.35-7,11.07-6.39,16.6l.08.67c.16,1.49.32,3,.61,4.49l0,.27-.8.47c-1.25.87-1.22,2-1.18,3.21v1a18.13,18.13,0,0,0,1.87,9.51,6.8,6.8,0,0,0,2.14,2.29,13.92,13.92,0,0,1,1.24,1,6,6,0,0,1,1.29,3.54l0,.2a12.06,12.06,0,0,0,.36,1.92,9.26,9.26,0,0,0,1.59,3.05,7.32,7.32,0,0,0,.87.89c1.44,1.45,6.34,6.36,10,9.5l.36.32a8.84,8.84,0,0,0,5.41,1.47,9,9,0,0,0,5.41-1.44c2.95-2.66,7-6.88,9.18-9.14l.63-.66a6.48,6.48,0,0,0,1-1,9.14,9.14,0,0,0,1.6-3,12.17,12.17,0,0,0,.35-1.93c.18-1.34.39-2.84,1.31-3.75.4-.36.81-.71,1.24-1a6.72,6.72,0,0,0,2.16-2.31A15.42,15.42,0,0,0,124.07,35a7.37,7.37,0,0,0-.81-2.32,5.66,5.66,0,0,0-.92-1.16l-.31-.3.08-.22c.16-.45.3-.91.42-1.36a36.13,36.13,0,0,0,.44-4.79c.68-5.59,1-10.54-2.61-14.93A24.28,24.28,0,0,0,101.47.91Z" transform="translate(-4.26 -0.17)"></path><path class="cls-2" d="M85.34,65.49a.37.37,0,0,1-.37-.37V59.38a.38.38,0,0,1,.37-.37.37.37,0,0,1,.37.37v5.74A.36.36,0,0,1,85.34,65.49Z" transform="translate(-4.26 -0.17)"></path><path class="cls-2" d="M114,65.49a.37.37,0,0,1-.37-.37V58.58a.38.38,0,0,1,.75,0v6.54A.37.37,0,0,1,114,65.49Z" transform="translate(-4.26 -0.17)"></path><path class="cls-2" d="M151.35,120.17l-46.43-.09,20-34.35-7.25-2.82L126,79.17h0c-.49-1.39-1.09-2.86-1.84-4.49l-.34-.74.78.22c4.95,1.41,9.3,2.69,12.94,3.8h0c9.39,2.87,12.41,13,12.44,13.1Zm-45.13-.84,44.35.09-1.33-28.25s-2.92-9.76-11.93-12.51c-3.44-1-7.53-2.25-12.15-3.57.61,1.37,1.11,2.63,1.53,3.83l.22.65-7.33,3.29,6.4,2.49Z" transform="translate(-4.26 -0.17)"></path><path class="cls-2" d="M47.33,120.17,48.7,91.06c.13-.41,3.19-10.28,12.45-13.15,3.92-1.17,9.07-2.66,13.77-4l.79-.22-.35.74c-.72,1.54-1.47,3.38-2,4.78h0L81.74,83l-7.25,2.78,19.68,34.35Zm2.1-28.93-1.31,28.18,44.77-.09-19.48-34L79.8,82.9l-7.34-3.29L72.7,79c.42-1.2,1-2.72,1.65-4.11-4.49,1.29-9.28,2.68-13,3.78C52.69,81.31,49.68,90.44,49.43,91.24Z" transform="translate(-4.26 -0.17)"></path><path class="cls-1" d="M106.09,101.93l-3.93-16.12a2.33,2.33,0,0,1,.26-1.77l1.29-2.19-3.56-4.78a.57.57,0,0,0-.81-.09.43.43,0,0,0-.1.09l-3.56,4.78L97,84a2.38,2.38,0,0,1,.27,1.77L93.32,102l6.34,17.38" transform="translate(-4.26 -0.17)"></path><path class="cls-2" d="M100.19,120.08H93.84a.37.37,0,1,1,0-.74h5.29L82.24,72.16l-7.1,2.45a.36.36,0,0,1-.47-.23.37.37,0,0,1,.23-.47l7.8-2.69Z" transform="translate(-4.26 -0.17)"></path><path class="cls-2" d="M89,91.15l-7-19.47,3.12-7.15,15,12ZM82.87,71.71l6.41,17.9,9.89-13L85.49,65.72Z" transform="translate(-4.26 -0.17)"></path><path class="cls-2" d="M105.7,120.08H99.24l17.45-48.87,7.93,3a.38.38,0,0,1,.22.48.38.38,0,0,1-.48.22l-7.22-2.69-16.85,47.16h5.41a.37.37,0,1,1,0,.74Z" transform="translate(-4.26 -0.17)"></path><path class="cls-2" d="M110.34,91.15,99.17,76.53l15-12,3.12,7.15Zm-10.13-14.5,9.89,13,6.41-17.9-2.61-6Z" transform="translate(-4.26 -0.17)"></path><path class="cls-2" d="M75.94,30.05l-.11.06V31a14.39,14.39,0,0,0,2,4.88l.52.77.16-.92c.09-.5.2-1,.3-1.53a27.15,27.15,0,0,0,.54-3.1,15.7,15.7,0,0,0,0-1.94,16.68,16.68,0,0,1,0-2c.27-2.38,1.89-4.71,3.47-7a31.68,31.68,0,0,0,1.94-3c1-1.86,3-3.74,5.21-3.44a7.09,7.09,0,0,1,3.12,1.59l.42.3A24.45,24.45,0,0,0,104,19.87a36,36,0,0,0,3.88.27c4.4.16,9.87.35,10.76,4a35.82,35.82,0,0,1,.7,8c0,1.23,0,2.5.11,3.72,0,.59.31.79.53.85s.7,0,.94-.67.53-1.37.82-2.06c.23-.54.39-.94.57-1.38l.11-1.52c.16-.46.31-.93.43-1.39a36.13,36.13,0,0,0,.45-4.87c.66-5.42,1-10.62-2.69-15.17A24.74,24.74,0,0,0,101.34.54c-6.46,0-15.75,2.07-19.41,7.32-6.94,1.48-7.22,12.08-6.68,17C75.44,26.58,75.61,28.34,75.94,30.05Z" transform="translate(-4.26 -0.17)"></path><path class="cls-2" d="M31.8,70.73a.35.35,0,0,1-.14,0,.38.38,0,0,1-.21-.48l.21-.52a20,20,0,0,0,1.22-5.78L33,62.47a.36.36,0,0,1,.4-.34.37.37,0,0,1,.34.4L33.62,64a20.74,20.74,0,0,1-1.27,6l-.2.51A.38.38,0,0,1,31.8,70.73Zm25.38,0a.38.38,0,0,1-.35-.23l-.2-.52a20.56,20.56,0,0,1-1.27-6l-.11-1.45a.37.37,0,0,1,.34-.4.38.38,0,0,1,.4.34l.11,1.45a20.11,20.11,0,0,0,1.22,5.8l.2.51a.37.37,0,0,1-.21.49Z" transform="translate(-4.26 -0.17)"></path><path class="cls-2" d="M68.1,76.63H68c-1.43-.31-3-.6-4.82-.93h-.5a.37.37,0,0,1-.37-.37A.38.38,0,0,1,62.7,75h.56c1.94.33,3.48.63,4.92.94a.38.38,0,0,1,.29.44A.38.38,0,0,1,68.1,76.63Z" transform="translate(-4.26 -0.17)"></path><path class="cls-2" d="M84.29,120.17h-80v-.37c0-.25-.21-24.39.22-32.66C4.92,79.7,15,77,25.77,75.17h.59a.38.38,0,0,1,0,.75h-.52C15.4,77.68,5.64,80.27,5.28,87.18c-.4,7.68-.25,29.15-.22,32.24H84.29a.38.38,0,1,1,0,.75Z" transform="translate(-4.26 -0.17)"></path><path class="cls-1" d="M43,88.87a1.5,1.5,0,1,0,1.49-1.5A1.49,1.49,0,0,0,43,88.87Z" transform="translate(-4.26 -0.17)"></path><path class="cls-1" d="M44.52,92.26A1.5,1.5,0,1,0,46,93.75,1.49,1.49,0,0,0,44.52,92.26Z" transform="translate(-4.26 -0.17)"></path><path class="cls-1" d="M44.52,97.14a1.5,1.5,0,1,0,1.5,1.5A1.5,1.5,0,0,0,44.52,97.14Z" transform="translate(-4.26 -0.17)"></path><path class="cls-2" d="M44.49,69.66c-5.6,0-13.48-8.87-14.87-11.15a25.72,25.72,0,0,1-2.57-6.2c-4-1.58-5.41-7.52-5.37-10.92,0-2,.51-3.19,1.49-3.53a2.88,2.88,0,0,1,1-.15h.3l.1.58c0,.13.05.26.07.38.55,2.75,1.32,5.25,1.49,5.79a.49.49,0,0,0,.2-.06C25,35.8,28.12,27.66,30.88,25.08l.16-.15.21.06a46.84,46.84,0,0,0,27.15-.13l.29-.09.15.26c0,.09,5.25,9.43,3.89,19.32a.28.28,0,0,0,.23.11,58.34,58.34,0,0,0,1.42-5.78c0-.16.06-.31.08-.47l.09-.52h.32a2.75,2.75,0,0,1,.95.16c1,.34,1.45,1.49,1.48,3.53,0,3.41-1.39,9.35-5.37,10.92a25.72,25.72,0,0,1-2.57,6.2C58,60.79,50.09,69.66,44.49,69.66Zm-20.6-31.2a2.4,2.4,0,0,0-.48.1c-.79.28-1,1.7-1,2.84,0,3.23,1.28,8.86,5,10.25l.17.07.14.21a24.78,24.78,0,0,0,2.54,6.19c1.29,2.14,9,10.79,14.23,10.79s12.94-8.65,14.23-10.79a24.78,24.78,0,0,0,2.54-6.19l.05-.19.19-.06c3.77-1.42,5.09-7,5-10.28,0-1.14-.19-2.56-1-2.84h0a2.79,2.79,0,0,0-.39-.1c0,.12-.05.24-.07.36a60.92,60.92,0,0,1-1.48,6l-.05.11a.88.88,0,0,1-1,.21.83.83,0,0,1-.55-.89c1.2-8.71-2.83-17-3.65-18.58a47.78,47.78,0,0,1-27.1.11c-2.6,2.63-5.42,10.33-4.11,18.47a.82.82,0,0,1-.53.89.9.9,0,0,1-1.05-.21l-.05-.11a57,57,0,0,1-1.55-6Z" transform="translate(-4.26 -0.17)"></path><path class="cls-2" d="M65.29,31.87c0-6.33-.47-16-7.05-15.44,0,0,.43-5.39-9.43-5.73-3.47-.13-25.22-3.51-25.08,21.42,0,.24,0,.47,0,.7,0,.66,0,1.31,0,2a29.75,29.75,0,0,0,.56,4,58,58,0,0,0,1.53,6c.21.28,1,.11.91-.41-1.4-8.71,1.83-16.55,4.38-18.94a47.39,47.39,0,0,0,27.38-.14s5.2,9.21,3.84,19.08c-.07.52.71.69.92.41,0,0,.87-2.81,1.47-6A27.67,27.67,0,0,0,65.29,34q0-.4,0-.93T65.29,31.87Z" transform="translate(-4.26 -0.17)"></path><path class="cls-2" d="M32.37,91,25.77,75.1l5.83-5.72L44.43,81.61,57.37,69.38,63.2,75.1l-1.34,3.23a.37.37,0,1,1-.69-.29l1.15-2.76-5-4.86L45.58,81.56l6,4.56a.37.37,0,1,1-.45.59l-6.64-5.08h0ZM26.66,75.28l6,14.49,10.63-8.2L31.61,70.42Z" transform="translate(-4.26 -0.17)"></path><path class="cls-2" d="M44.49,120.17a.37.37,0,0,1-.37-.38V106.37l-9.4-17.78a.37.37,0,1,1,.66-.35l9.48,18v13.52A.37.37,0,0,1,44.49,120.17Z" transform="translate(-4.26 -0.17)"></path><path class="cls-2" d="M44.49,106.65a.34.34,0,0,1-.17-.05.36.36,0,0,1-.16-.5l4.24-8a.37.37,0,0,1,.5-.15.36.36,0,0,1,.16.5l-4.24,8A.38.38,0,0,1,44.49,106.65Z" transform="translate(-4.26 -0.17)"></path></svg>